<svg xmlns="http://www.w3.org/2000/svg" width="47.376" height="47.376" viewBox="0 0 47.376 47.376"><defs><style>.a{fill:#f56655;}.b{fill:#fff;}</style></defs><circle class="a" cx="23.688" cy="23.688" r="23.688"/><path class="b" d="M11.179,37.306a5.768,5.768,0,1,0,5.768,5.768A5.759,5.759,0,0,0,11.179,37.306Zm0,9.518a3.75,3.75,0,1,1,3.75-3.75A3.757,3.757,0,0,1,11.179,46.824Zm7.349-9.754a1.345,1.345,0,1,1-1.345-1.345A1.342,1.342,0,0,1,18.528,37.07Zm3.82,1.365a6.658,6.658,0,0,0-1.817-4.714A6.7,6.7,0,0,0,15.817,31.9c-1.857-.105-7.425-.105-9.282,0a6.692,6.692,0,0,0-4.714,1.812A6.68,6.68,0,0,0,0,38.43C-.1,40.288-.1,45.855,0,47.712a6.658,6.658,0,0,0,1.817,4.714,6.71,6.71,0,0,0,4.714,1.817c1.857.105,7.425.105,9.282,0a6.658,6.658,0,0,0,4.714-1.817,6.7,6.7,0,0,0,1.817-4.714C22.454,45.855,22.454,40.293,22.349,38.435Zm-2.4,11.27a3.8,3.8,0,0,1-2.139,2.139c-1.481.587-5,.452-6.632.452s-5.156.131-6.632-.452a3.8,3.8,0,0,1-2.139-2.139c-.587-1.481-.452-5-.452-6.632s-.131-5.156.452-6.632A3.8,3.8,0,0,1,4.547,34.3c1.481-.587,5-.452,6.632-.452s5.156-.131,6.632.452a3.8,3.8,0,0,1,2.139,2.139c.587,1.481.452,5,.452,6.632S20.536,48.229,19.949,49.705Z" transform="translate(12.223 -19.677)"/></svg>