<svg xmlns="http://www.w3.org/2000/svg" width="112.52" height="113.094" viewBox="0 0 112.52 113.094"><defs><style>.a{fill:#f3f3f3;}.b{fill:#403e3e;}</style></defs><g transform="translate(-69.401)"><path class="a" d="M56.26,0A56.548,56.548,0,1,1,0,56.547,56.4,56.4,0,0,1,56.26,0Z" transform="translate(69.401)"/><g transform="translate(91.884 -227.212)"><path class="b" d="M82.592,322.837a2.49,2.49,0,0,1-1.184,1.969c-.6.479-.437.922-.241,1.513.212.636.556.774,1.181.794,1.979.063,2.535.687,2.551,2.7,0,.292,0,.584,0,.876,0,2.746-.222,3.035-2.9,3.147-.883.037-.906.679-1.229,1.168-.362.546,0,.819.318,1.161,1.43,1.529,1.411,2.328-.065,3.811q-.4.4-.8.8c-1.561,1.558-2.422,1.609-3.978.032a1.311,1.311,0,0,0-1.651-.259c-.646.225-.747.619-.755,1.224-.026,1.894-.688,2.515-2.581,2.528-.334,0-.667,0-1,0-2.565,0-3.1-.457-3.162-3-.019-.823-.567-.885-1.043-1.168s-.8-.128-1.181.234c-1.565,1.484-2.387,1.46-3.891-.039-.3-.294-.591-.589-.881-.889-1.457-1.505-1.476-2.349,0-3.806a1.257,1.257,0,0,0,.408-1.592c-.3-.766-.752-.817-1.418-.835-1.67-.045-2.314-.728-2.348-2.39-.013-.667-.012-1.335,0-2,.031-1.669.679-2.343,2.354-2.328.811.007,1.4-.072,1.732-.986a1.105,1.105,0,0,0-.313-1.391c-1.369-1.377-1.335-2.319.055-3.718.324-.325.652-.646.98-.966,1.436-1.4,2.377-1.427,3.805.037a1.3,1.3,0,0,0,1.635.331,1.139,1.139,0,0,0,.82-1.3c0-1.8.7-2.458,2.5-2.473.334,0,.668,0,1,0,2.651,0,3.13.4,3.23,3.052.032.849.652.837,1.094,1.132.5.331.8.049,1.163-.292,1.52-1.442,2.341-1.445,3.786.049C81.4,320.8,82.543,321.448,82.592,322.837Zm-16.313,7.29a4.509,4.509,0,0,0,4.479,4.663,4.633,4.633,0,1,0,.066-9.265A4.523,4.523,0,0,0,66.279,330.126Z" transform="translate(-36.89 -46.336)"/><path class="b" d="M28.925,315.2c2.207,1.8,4.2,3.427,6.193,5.044.408.331.342.573-.035.877-1.973,1.6-3.935,3.2-6,4.893a5.594,5.594,0,0,1-.128-2.384c.1-.972-.349-1.241-1.191-1.454A25.7,25.7,0,0,1,10.082,307.79,26.389,26.389,0,0,1,26.2,271.265c.988-.3,1.286-.111,1.5.847.486,2.2.53,2.193-1.621,2.987a22.818,22.818,0,0,0,1.687,43.4c1.015.287,1.263.093,1.177-.894C28.875,316.9,28.925,316.19,28.925,315.2Z" transform="translate(0 -12.693)"/><path class="b" d="M113.56,265.142c-2.22-1.816-4.237-3.468-6.256-5.117-.285-.233-.326-.447-.014-.7,2.019-1.643,4.032-3.292,6.27-5.121,0,1.058.046,1.835-.013,2.6-.06.788.179,1.149,1.01,1.35A25.615,25.615,0,0,1,132.1,271.964a26.417,26.417,0,0,1-13.891,36.472c-.983.388-1.406.3-1.722-.8-.6-2.079-.672-2.057,1.262-2.92a22.821,22.821,0,0,0-3.11-42.882c-1-.273-1.154-.005-1.095.868C113.6,263.428,113.56,264.163,113.56,265.142Z" transform="translate(-74.629)"/></g></g></svg>