<svg xmlns="http://www.w3.org/2000/svg" width="112.52" height="113.094" viewBox="0 0 112.52 113.094"><defs><style>.a{fill:#f3f3f3;}.b{fill:#2d2d2d;}</style></defs><g transform="translate(-69.401 0.298)"><g transform="translate(0 -0.298)"><path class="a" d="M56.26,0A56.548,56.548,0,1,1,0,56.547,56.4,56.4,0,0,1,56.26,0Z" transform="translate(69.401)"/></g><g transform="translate(81.387 -239.728)"><path class="b" d="M181.08,335.858c0,5.931-.018,11.861.019,17.791.006.914-.206,1.288-1.186,1.238-1.479-.076-2.966-.071-4.446,0-.981.045-1.3-.262-1.293-1.278.047-5.369.021-10.739.02-16.108,0-6.371.025-12.743-.026-19.114-.009-1.139.268-1.556,1.46-1.462a33.136,33.136,0,0,0,4.325.006c.906-.048,1.15.24,1.144,1.139-.039,5.93-.02,11.861-.02,17.791Z" transform="translate(-114.8 -34.542)"/><path class="b" d="M79.97,369.63c0,4.366-.024,8.733.02,13.1.009.886-.212,1.207-1.133,1.163a42.8,42.8,0,0,0-4.445,0c-1.024.057-1.275-.315-1.271-1.294.035-7.892.007-15.784.035-23.676,0-1.18-.535-2.7.272-3.456.739-.7,2.221-.2,3.373-.206,3.151-.026,3.15-.009,3.149,3.19Q79.968,364.041,79.97,369.63Z" transform="translate(-37.967 -63.546)"/><path class="b" d="M23.035,397.008c0-3.161.025-6.323-.02-9.484-.012-.8.245-1.041,1.012-1.022,1.6.041,3.2.046,4.8,0,.847-.024,1.093.31,1.09,1.124q-.035,9.544,0,19.087c0,.806-.3,1.034-1.059,1.014-1.6-.043-3.2-.062-4.8,0-.89.036-1.048-.329-1.039-1.119C23.059,403.411,23.037,400.21,23.035,397.008Z" transform="translate(0 -87.397)"/><path class="b" d="M123.97,397.012c0-3.121.026-6.243-.018-9.363-.012-.854.171-1.23,1.114-1.188,1.6.071,3.2.04,4.8.013.667-.012.908.236.907.908q-.021,9.723.007,19.447c0,.717-.327.875-.954.867-1.64-.022-3.282-.038-4.921.007-.743.021-.956-.244-.95-.968C123.988,403.5,123.971,400.254,123.97,397.012Z" transform="translate(-76.661 -87.363)"/><path class="b" d="M63.762,277.553c-.633-.331-.973.131-1.354.658q-3.654,5.065-7.355,10.1a1.446,1.446,0,0,0-.257,1.721,2.757,2.757,0,0,1-.621,3.307,3.108,3.108,0,0,1-3.331.72,3.064,3.064,0,0,1-1.9-2.944,1.2,1.2,0,0,0-.724-1.316q-2.733-1.628-5.429-3.317a1.148,1.148,0,0,0-1.406-.066,2.7,2.7,0,0,1-2.962.022,1.165,1.165,0,0,0-1.417.016c-1.865,1.168-3.738,2.324-5.635,3.44a1.134,1.134,0,0,0-.592,1.167,2.962,2.962,0,0,1-2.18,3.072,3.144,3.144,0,0,1-3.463-1.31,3.208,3.208,0,0,1,.349-3.7,2.957,2.957,0,0,1,3.728-.56,1.3,1.3,0,0,0,1.519-.093q2.688-1.7,5.425-3.325a1.238,1.238,0,0,0,.675-1.248,3.047,3.047,0,1,1,6.083.089,1.075,1.075,0,0,0,.645,1.121q2.821,1.716,5.63,3.45c.068.042.13.1.2.131a15.56,15.56,0,0,0,4.232-1.071c2.517-3.466,5.022-6.941,7.558-10.392a1.256,1.256,0,0,0,.164-1.5,2.982,2.982,0,0,1,.915-3.66,3.1,3.1,0,0,1,3.591-.109,3.078,3.078,0,0,1-2.093,5.6Zm.313-1.616a1.41,1.41,0,0,0,1.52-1.411,1.458,1.458,0,0,0-1.51-1.511,1.375,1.375,0,0,0-1.393,1.487A1.339,1.339,0,0,0,64.075,275.936ZM29.2,291.335a1.4,1.4,0,0,0-1.33-1.587,1.437,1.437,0,0,0-1.6,1.417,1.4,1.4,0,0,0,1.409,1.492A1.376,1.376,0,0,0,29.2,291.335Zm22.871-1.58a1.412,1.412,0,0,0-1.542,1.354,1.468,1.468,0,0,0,1.461,1.564,1.367,1.367,0,0,0,1.446-1.432A1.343,1.343,0,0,0,52.074,289.754Zm-13.633-6.123a1.469,1.469,0,0,0,1.439,1.619,1.451,1.451,0,0,0,1.469-1.444,1.4,1.4,0,0,0-1.523-1.471A1.314,1.314,0,0,0,38.441,283.631Z" transform="translate(-1.286)"/></g></g></svg>