<svg xmlns="http://www.w3.org/2000/svg" width="112.52" height="113.094" viewBox="0 0 112.52 113.094"><defs><style>.a{fill:#f3f3f3;}.b{fill:#2d2d2d;}</style></defs><g transform="translate(-69.401 0.298)"><g transform="translate(0 -0.298)"><path class="a" d="M56.26,0A56.548,56.548,0,1,1,0,56.547,56.4,56.4,0,0,1,56.26,0Z" transform="translate(69.401)"/></g><g transform="translate(217.401 -86.298)"><path class="b" d="M-68.5,123.817m-.1,13.647a55.229,55.229,0,0,1-1.235,9.406,33.219,33.219,0,0,1-4.572,11.159,24.474,24.474,0,0,1-13.633,10.34c-1.029.311-2.1.488-3.149.728h-1.221l-.686-.131a23.64,23.64,0,0,1-11.519-5.637c-4.632-4.1-7.318-9.351-8.85-15.259a47.916,47.916,0,0,1-1.362-8.655q-.088-1.236-.172-2.472v-4.375c.03-.3.067-.6.089-.9.138-1.84.27-3.68.411-5.519a1.559,1.559,0,0,1,1.127-1.419q1.071-.392,2.142-.782,7.479-2.713,14.958-5.427c1.36-.495,2.71-1.015,4.065-1.524h.814c.276.115.548.241.829.343q10.174,3.7,20.351,7.388a1.591,1.591,0,0,1,1.077,1.125,5.47,5.47,0,0,1,.131.954c.134,1.739.259,3.479.388,5.219l.016,0m-3.21,1.922q-.183-3.019-.366-6.038a.556.556,0,0,0-.444-.58c-.6-.18-1.173-.43-1.761-.643q-8.434-3.063-16.868-6.127a1.448,1.448,0,0,0-1.07-.008c-2.122.79-4.252,1.558-6.381,2.33q-6.076,2.205-12.157,4.4a.751.751,0,0,0-.574.763c-.05.931-.133,1.859-.186,2.79a59.534,59.534,0,0,0,.485,12.27,34.447,34.447,0,0,0,2.971,10.08c2.878,5.91,7.261,10.138,13.655,12.077a7.72,7.72,0,0,0,4.227.327,21.283,21.283,0,0,0,12.122-7.929c3.418-4.471,5.02-9.651,5.79-15.136A61.729,61.729,0,0,0-71.811,133.954Z"/><path class="b" d="M20.107,246.661c0-1.61,0-3.151,0-4.692a5.006,5.006,0,0,1,.9-3.014,4.576,4.576,0,0,1,3.635-2.036,39.748,39.748,0,0,1,4.824.082,4.6,4.6,0,0,1,3.937,4.066c.108,1.62.066,3.251.089,4.877,0,.217,0,.435,0,.661a11.442,11.442,0,0,1,1.175.147,2.337,2.337,0,0,1,1.893,2.371q.012,4.858,0,9.717a2.413,2.413,0,0,1-2.513,2.485q-7.249.006-14.5,0a2.424,2.424,0,0,1-2.514-2.539q-.009-4.757,0-9.513a2.44,2.44,0,0,1,2.6-2.611C19.765,246.66,19.9,246.661,20.107,246.661Zm10.1-.015c0-1.711.044-3.369-.017-5.023a1.542,1.542,0,0,0-1.691-1.465c-1.084,0-2.168,0-3.252,0a1.663,1.663,0,0,0-1.875,1.87c-.007,1.389,0,2.778,0,4.167,0,.147.021.293.033.452Zm-4.429,9.071v1.068c0,1.3,0,1.3,1.3,1.273.588-.012.733-.161.734-.767,0-1.068-.011-2.136.012-3.2a.828.828,0,0,1,.248-.546,2.024,2.024,0,0,0,.292-2.862,2,2,0,0,0-2.845-.284,1.89,1.89,0,0,0-.251,2.829,1.885,1.885,0,0,1,.511,1.576C25.78,255.106,25.782,255.411,25.782,255.716Z" transform="translate(-118.597 -107.684)"/></g></g></svg>