<svg xmlns="http://www.w3.org/2000/svg" width="112.52" height="113.094" viewBox="0 0 112.52 113.094"><defs><style>.a{fill:#f3f3f3;}.b{fill:#403e3e;}</style></defs><g transform="translate(-69.401 0.298)"><path class="a" d="M56.26,0A56.548,56.548,0,1,1,0,56.547,56.4,56.4,0,0,1,56.26,0Z" transform="translate(69.401 -0.298)"/><g transform="translate(-86.383 -403.335)"><path class="b" d="M192.636,536.828c-.1,1-.025,2.143-1.183,2.126-1.443-.022-3.155.961-4.271-.856a35.778,35.778,0,0,1-5.311-15.827c-.231-2.68-.189-2.674,2.587-2.749,1.893-.051,3.786-.131,5.679-.2,1.183-.046,2.082.308,2.059,1.672-.017.972.6.837,1.182.816a58.483,58.483,0,0,1,8.432-.021,15.579,15.579,0,0,1,6.371,1.7c4.042,2.387,8.493,2.666,12.984,2.882.324.016.65-.009.974.007a2.82,2.82,0,0,1,2.863,2.72,2.718,2.718,0,0,1-2.751,2.8c-4,.153-8.007.194-12.008.355-.8.032-2.237-.449-2.189.858.045,1.259,1.445.784,2.284.777,3.626-.03,7.251-.133,10.877-.2a5.61,5.61,0,0,0,4.276-1.6,2.682,2.682,0,0,1,.967-.557c3.81-1.518,7.616-3.049,11.445-4.517,2.154-.825,3.429-.6,3.824.646.589,1.866-.927,2.426-2.139,3.1-6.054,3.345-12.15,6.614-18.166,10.025a12.892,12.892,0,0,1-10.158,1.3C205.073,540.379,198.9,538.6,192.636,536.828Z" transform="translate(0 -56.903)"/><path class="b" d="M255.949,456.951c.1-.2.288-.58.474-.964a3.88,3.88,0,0,0-1.789-5.217,2.162,2.162,0,0,1-1.528-2.486,2.2,2.2,0,0,1,1.9-2.233,3.784,3.784,0,0,0,2.471-4.911,2.2,2.2,0,0,1,.765-2.831,2.028,2.028,0,0,1,2.761-.052c1.575,1.068,4.283.134,5.221-1.778a2.042,2.042,0,0,1,2.239-1.424,2.306,2.306,0,0,1,2.28,1.874,3.758,3.758,0,0,0,4.9,2.523A2.358,2.358,0,0,1,278.5,443a3.442,3.442,0,0,0,1.615,4.912,2.233,2.233,0,0,1,1.651,2.427,2.291,2.291,0,0,1-2.029,2.3,3.457,3.457,0,0,0-2.275,4.653,2.269,2.269,0,0,1-.6,2.885,2.21,2.21,0,0,1-2.81.156,3.756,3.756,0,0,0-5.17,1.832,2.3,2.3,0,0,1-2.57,1.445c-1.192-.056-1.629-.7-1.966-1.756a4.038,4.038,0,0,0-5.233-2.357A2.463,2.463,0,0,1,255.949,456.951Zm4.5-7.808a6.968,6.968,0,0,0,6.812,7.2,7.1,7.1,0,0,0,7.247-6.811,6.989,6.989,0,0,0-6.859-7.153A6.869,6.869,0,0,0,260.451,449.144Z" transform="translate(-48.144)"/></g></g></svg>