<svg xmlns="http://www.w3.org/2000/svg" width="112.52" height="113.094" viewBox="0 0 112.52 113.094"><defs><style>.a{fill:#f3f3f3;}.b{fill:#403e3e;}</style></defs><g transform="translate(-74.401 0.298)"><path class="a" d="M56.26,0A56.548,56.548,0,1,1,0,56.547,56.4,56.4,0,0,1,56.26,0Z" transform="translate(74.401 -0.298)"/><g transform="translate(-8.552 -424.029)"><path class="b" d="M134.016,472.855a8.69,8.69,0,0,0-5.259-1.741,8.417,8.417,0,0,0-8.185,6.516c-.17.745-.383,1.053-1.226,1.158a7.467,7.467,0,0,0-6.554,8.18,7.553,7.553,0,0,0,7.525,6.9q4.156.031,8.312-.008c.6-.006.88.109.828.785a22.7,22.7,0,0,0-.01,2.42c.014.461-.172.611-.617.608-3.013-.016-6.029.076-9.038-.04a11.359,11.359,0,0,1-3.549-21.958,2.48,2.48,0,0,0,1.5-1.371,12.206,12.206,0,0,1,13.756-6.687.99.99,0,0,0,1.244-.47,17.013,17.013,0,0,1,28.745,1.024,16.815,16.815,0,0,1,2.3,7.567,1.173,1.173,0,0,0,.576,1.039,11.375,11.375,0,0,1-6.213,20.885c-2.8.026-5.6-.01-8.393.017-.6.006-.813-.185-.776-.787a18.755,18.755,0,0,0,0-2.258c-.036-.592.142-.786.76-.778,2.69.034,5.38.017,8.07.014a7.553,7.553,0,0,0,7.84-6.915,7.466,7.466,0,0,0-4.781-7.715c-.858-.31-.966-.7-.92-1.5a13.218,13.218,0,0,0-25.508-5.78A1.919,1.919,0,0,1,134.016,472.855Z"/><path class="b" d="M250.214,596.548q0,2.542,0,5.084c0,1.137-.072,1.21-1.176,1.212q-2.421,0-4.842,0c-1.086,0-1.215-.123-1.217-1.192-.005-3.443-.023-6.886.006-10.329.006-.666-.171-.879-.85-.853-1.4.052-2.8.018-4.2.013-.343,0-.734.06-.9-.362-.146-.376.137-.6.358-.83,2.858-2.961,5.725-5.914,8.57-8.887.462-.482.791-.494,1.256-.007q4.294,4.49,8.624,8.947c.212.22.423.439.3.773-.139.391-.49.365-.812.366-1.4,0-2.8.035-4.2-.011-.7-.023-.985.129-.955.913C250.26,593.1,250.214,594.826,250.214,596.548Z" transform="translate(-107.38 -100.887)"/></g></g></svg>