<svg xmlns="http://www.w3.org/2000/svg" width="112.52" height="113.094" viewBox="0 0 112.52 113.094"><defs><style>.a{fill:#f3f3f3;}.b{fill:#403e3e;}</style></defs><g transform="translate(-69.401 0.298)"><path class="a" d="M56.26,0A56.548,56.548,0,1,1,0,56.547,56.4,56.4,0,0,1,56.26,0Z" transform="translate(69.401 -0.298)"/><g transform="translate(-164.622 12.678)"><path class="b" d="M290.8,42.75c1.268.291,2.376.481,2.967,1.714a.8.8,0,0,0,.885.4,1.367,1.367,0,0,1,.688.015,34.337,34.337,0,0,0,4.85,2.408c.683.248.744,1.22.74,2.011-.02,3.536.056,7.073-.035,10.606-.056,2.145-.6,4.18-2.792,5.2-.9.421-.642,1.128-.65,1.771-.045,3.707-.036,3.707-3.782,3.707-1.565,0-3.132-.057-4.694.018-1.166.056-1.785-.271-1.615-1.543.046-.342-.024-.7.011-1.042a6.073,6.073,0,0,0-1.463-4.939,8.438,8.438,0,0,1-2.052-5.59,4.562,4.562,0,0,0-2.23-3.908c-.531-.35-1.078-.678-1.63-.994a2.183,2.183,0,0,1-1.1-3.066,2.438,2.438,0,0,1,3.049-1.335,9.644,9.644,0,0,1,3.669,1.98c0-2.429,0-4.633,0-6.837,0-.461-.269-.57-.669-.573s-.988-.017-.961-.508c.084-1.555-.987-1.221-1.851-1.226-1.971-.013-3.945.069-5.91-.031-1.2-.061-1.408.4-1.427,1.483-.025,1.4.059,2.419,1.62,3.126a3.83,3.83,0,0,1,1.746,4.656,4.217,4.217,0,0,1-8.011.073c-.558-1.658-.076-3.9,1.507-4.577,1.912-.818,1.845-2.141,1.81-3.717-.053-2.395-.013-2.4,2.456-2.4,2.2,0,4.407-.05,6.607.022,1.037.034,1.4-.226,1.389-1.337-.03-2.523.037-2.524-2.439-2.524-2.9,0-5.8.021-8.694-.013a1.629,1.629,0,0,0-1.851,1.072,4.041,4.041,0,0,1-4.729,2.35,4.231,4.231,0,0,1-.093-8.175,4.111,4.111,0,0,1,4.865,2.389,1.449,1.449,0,0,0,1.533,1.017c3.361-.048,6.726-.105,10.083.015,1.754.063,1.287-1.068,1.272-1.936-.014-.846.536-2.049-1.237-1.965-2.429.114-4.873-.072-7.3.063-1.6.089-2.1-.508-1.884-1.988.05-.341-.028-.7.014-1.041a2.457,2.457,0,0,0-1.575-2.958,3.859,3.859,0,0,1-1.772-4.651,4.225,4.225,0,0,1,8.072.052c.515,1.759-.113,3.931-1.833,4.617-2.129.849-1.391,2.442-1.508,3.866-.043.533.276.688.754.687,2.492-.006,4.984,0,7.477-.006.326,0,.8.054.776-.436-.077-1.487.94-1.3,1.868-1.3q4.173.008,8.346,0c.812,0,1.72-.15,1.65,1.14-.033.6.409.595.823.595,2.434,0,4.869-.011,7.3.011.648.006.951-.2.927-.888-.052-1.485.367-2.969-1.687-3.779-1.617-.638-2.169-2.836-1.671-4.526a4.225,4.225,0,0,1,8.071-.024c.512,1.681-.033,3.843-1.643,4.539-1.751.757-1.747,1.927-1.719,3.42.054,2.9.314,2.617-2.569,2.627-2.2.008-4.406.05-6.607-.019-1.006-.032-1.36.31-1.248,1.284a8.38,8.38,0,0,1,0,1.563c-.054.725.191,1.032.971,1.025,3.535-.031,7.072-.06,10.606.015,1.094.023,1.116-.766,1.464-1.375a4.173,4.173,0,0,1,7.831,1.759,4.115,4.115,0,0,1-2.723,4.2,3.991,3.991,0,0,1-5.13-2.033,1.871,1.871,0,0,0-2.108-1.221c-2.955.062-5.917.131-8.865-.02-1.681-.086-2.17.377-2.1,2.073.058,1.374.273,1.936,1.794,1.846,2.368-.14,4.752.017,7.126-.059,1.207-.039,1.729.344,1.588,1.579-.065.572.047,1.165-.023,1.736a2.1,2.1,0,0,0,1.406,2.523,3.969,3.969,0,0,1,1.955,4.742,4.225,4.225,0,0,1-8.124-.136,4.3,4.3,0,0,1,2.092-4.741c.462-.269,1.25-.186,1.281-.962a21.246,21.246,0,0,0-.042-2.95c-.054-.547-.633-.379-1-.382-2.318-.015-4.637-.011-6.955,0-.334,0-.923-.082-.931.227-.06,2.369-1.834,1.3-2.938,1.486A12.615,12.615,0,0,1,290.8,42.75Zm-5.527-1.788.361-.035c0-1.382-.043-2.765.012-4.145a2.414,2.414,0,0,1,4.828.017c.054,1.215.036,2.434.008,3.651-.015.65.2.965.889.926a13.076,13.076,0,0,1,1.911.005c.872.079,1.065-.327,1.057-1.117q-.047-5.216,0-10.432c.006-.745-.231-1.02-.994-1.008-2.376.037-4.753.025-7.129.006-.628,0-.956.154-.951.867C285.287,33.452,285.275,37.207,285.275,40.963Z"/></g></g></svg>