<svg xmlns="http://www.w3.org/2000/svg" width="112.52" height="113.094" viewBox="0 0 112.52 113.094"><defs><style>.a{fill:#f3f3f3;}.b{fill:#403e3e;}</style></defs><g transform="translate(-69.401)"><path class="a" d="M56.26,0A56.548,56.548,0,1,1,0,56.547,56.4,56.4,0,0,1,56.26,0Z" transform="translate(69.401)"/><g transform="translate(43.99 -165.096)"><path class="b" d="M79.6,226.717a24.136,24.136,0,0,1,12.87,3.552c1.112.669,1.489,1.115.388,2.222-1.843,1.853-1.74,1.861-4.13.715-7.631-3.659-15-3.038-21.577,2.217-6.539,5.224-8.874,12.3-6.81,20.421,2.083,8.192,7.6,13.153,15.9,14.729a19.919,19.919,0,0,0,19.439-31.6c-.31-.427-1.128-.823-.625-1.492a18.226,18.226,0,0,1,2.5-2.754c.284-.249.656.441.919.758A24.469,24.469,0,1,1,79.6,226.717Z" transform="translate(0 -27.038)"/><path class="b" d="M140.638,200.325c1.362-.88,1.575-1.851.546-3a1.135,1.135,0,0,1-.175-.275c-.362-.776-1.425-1.52-1.088-2.251a12.562,12.562,0,0,1,2.351-2.883c.461-.5.636.076.814.344.45.679.82,1.414,1.3,2.068.235.319.308,1.207.948.717.5-.383,1.433-.818.792-1.814-.471-.731-.852-1.529-1.387-2.207a1.415,1.415,0,0,1,.2-2.22c.7-.662,1.3-1.436,2-2.225a4.709,4.709,0,0,1,.568.745,9.873,9.873,0,0,0,6.556,5.813c1.033.287.913.721.3,1.442-2.086,2.445-2.1,2.532-4.76,1.043-1.315-.736-2.178-.7-2.819.9,1.052.493,2.107,1.028,3.2,1.482.709.3.829.614.257,1.148a4.285,4.285,0,0,0-.322.368c-1.94,2.277-1.94,2.277-4.689,1.035-.3-.134-.6-.264-.889-.405-1.041-.5-1.4.406-1.727.985-.4.71.471.693.819.878.951.507,1.949.924,2.982,1.4-.2.272-.319.451-.457.613-2.308,2.724-2.321,2.75-5.58,1.3a1.393,1.393,0,0,0-1.939.4q-6.481,7.446-13.06,14.807a1.474,1.474,0,0,0-.34,1.83,4.322,4.322,0,0,1-1.5,5.221,4.43,4.43,0,0,1-5.44-.262,4.493,4.493,0,0,1-1.04-5.22,4.256,4.256,0,0,1,4.894-2.349,1.876,1.876,0,0,0,2.2-.722q6.266-7.093,12.624-14.1c.752-.826.988-1.475.2-2.328a.846.846,0,0,1-.088-.137c-1.734-2.828-1.648-3.252.836-5.433.511-.449.683-.271.954.173C139.318,198.26,139.989,199.3,140.638,200.325Z" transform="translate(-41.364)"/><path class="b" d="M105.33,254.008c-.437.5-.828.885-1.141,1.323-.489.683-.945.762-1.755.375-5.1-2.439-10-1.908-14.337,1.651A12.5,12.5,0,0,0,83.6,270.8a13.317,13.317,0,0,0,23.7,4.664c3.239-4.427,3.48-9.244,1.023-14.15-1.106-2.208-1.151-2.185.8-3.882,5.214,5.674,4.8,15.479-.913,21.39a16.222,16.222,0,0,1-24.449-21.257A16.054,16.054,0,0,1,105.33,254.008Z" transform="translate(-16.915 -43.606)"/><path class="b" d="M119.581,280.773a9.8,9.8,0,1,1-7.1-9.354c.514.159,1.69-.014,1.387,1.054-.235.828-.977.836-1.87.6a8.021,8.021,0,0,0-10.076,6.268,7.922,7.922,0,0,0,6.929,9.457,8.1,8.1,0,0,0,8.984-7.448,6.755,6.755,0,0,0-.712-3.8,1.147,1.147,0,0,1,.533-1.756c.823-.359.837.6,1.055,1.04A8.591,8.591,0,0,1,119.581,280.773Z" transform="translate(-30.157 -56.87)"/></g></g></svg>