<svg xmlns="http://www.w3.org/2000/svg" width="112.52" height="113.094" viewBox="0 0 112.52 113.094"><defs><style>.a{fill:#f3f3f3;}.b{fill:#403e3e;}</style></defs><g transform="translate(-72.401)"><g transform="translate(3)"><path class="a" d="M56.26,0A56.548,56.548,0,1,1,0,56.547,56.4,56.4,0,0,1,56.26,0Z" transform="translate(69.401)"/></g><g transform="translate(99.499 32.442)"><path class="b" d="M112.542,55.826h22.9V31.57l3.271-6.542V3.271h-6.542V0h-22.9V13.193H106V25.319l6.542,6.542Zm19.626-3.271H115.813V39.361h16.355Zm3.271-46.012v6.651h-3.271V6.542ZM128.9,3.271v9.922h-3.271V3.271Zm-6.542,0v9.922h-3.271V3.271Zm-9.813,0h3.271v9.922h-3.271Zm-3.271,20.693v-7.5h12.8a4.915,4.915,0,0,1-4.626,3.272h-4.907v3.271h6.542a3.275,3.275,0,0,1,3.271,3.271h3.271a6.537,6.537,0,0,0-2.758-5.332,8.179,8.179,0,0,0,2.594-4.481h9.978v7.791L132.168,30.8V36.09H115.813V30.506Z" transform="translate(-94.202)"/><path class="b" d="M0,0H7.361V3.271H0Z" transform="matrix(0.953, -0.304, 0.304, 0.953, 0.27, 17.277)"/><path class="b" d="M0,0H7.361V3.271H0Z" transform="matrix(0.953, -0.304, 0.304, 0.953, 48.046, 8.237)"/><path class="b" d="M0,0H3.271V7.361H0Z" transform="matrix(0.304, -0.953, 0.953, 0.304, 0.271, 9.114)"/><path class="b" d="M0,0H3.271V7.361H0Z" transform="matrix(0.304, -0.953, 0.953, 0.304, 48.036, 18.135)"/></g></g></svg>