<svg xmlns="http://www.w3.org/2000/svg" width="112.52" height="113.094" viewBox="0 0 112.52 113.094"><defs><style>.a{fill:#f3f3f3;}.b{fill:#403e3e;}</style></defs><g transform="translate(-69.401)"><path class="a" d="M56.26,0A56.548,56.548,0,1,1,0,56.547,56.4,56.4,0,0,1,56.26,0Z" transform="translate(69.401)"/><g transform="translate(369.473 29.855)"><path class="b" d="M-244,39.914q-10.491,0-20.983,0a7.519,7.519,0,0,1-.951-.056,3.053,3.053,0,0,1-2.484-3.173c-.019-2.24-.006-4.481-.006-6.721q0-11.286,0-22.572a5.519,5.519,0,0,1,.117-1.624,2.993,2.993,0,0,1,2.244-2.2,9.017,9.017,0,0,1,2.375-.258q20.415,0,40.83,0a3.486,3.486,0,0,1,2.452.773,3.565,3.565,0,0,1,1.2,2.742c.014,4.693.007,9.385.007,14.078q0,7.607,0,15.214a5.824,5.824,0,0,1-.078,1.175,3.362,3.362,0,0,1-3.373,2.623H-244Zm.126-3.388h8.674q5.926,0,11.853,0a.916.916,0,0,0,1.02-.82,2.855,2.855,0,0,0,.053-.586q0-13.647,0-27.294c0-.875-.235-1.109-1.1-1.111q-2.748-.006-5.495,0-17.507,0-35.014-.02a1.418,1.418,0,0,0-1.48,1.478c.03,7.039.017,14.078.017,21.118,0,2.029,0,4.057,0,6.086a1.034,1.034,0,0,0,.988,1.155Q-254.114,36.528-243.873,36.526Z"/><path class="b" d="M-149.265,432.054a3.612,3.612,0,0,0-.56,2.28c0,.378-.1.476-.48.475q-8.2-.017-16.393,0h-16.71c-.581,0-.582,0-.582-.587,0-.681.018-1.363-.008-2.043-.014-.355.091-.461.454-.46,2.815.013,5.631.007,8.446,0,.765,0,.632.076.641-.659.012-1.044,0-2.089,0-3.133a1.257,1.257,0,0,1,1.4-1.428c1.892-.011,3.784,0,5.676,0h6.993c.182,0,.364,0,.545.007.8.046,1.084.325,1.093,1.133.014,1.3.021,2.6-.007,3.9-.009.411.119.5.511.5,2.815-.016,5.631-.007,8.446-.005C-149.649,432.03-149.5,432.043-149.265,432.054Z" transform="translate(-76.758 -384.736)"/><path class="b" d="M-94.574,68.362c-.665-.678-1.269-1.267-1.84-1.888-.236-.256-.364-.232-.6,0-2.2,2.21-4.406,4.41-6.467,6.75-.247.28-.4.293-.686.058a28.19,28.19,0,0,1-2.379-2.171c-.235-.241-.369-.288-.635-.019-2.191,2.217-4.407,4.41-6.463,6.754-.268.305-.469.31-.743.074-.08-.069-.169-.128-.246-.2-.6-.558-.6-.718-.039-1.282q3.741-3.737,7.475-7.482c.27-.272.412-.265.669.006.708.745,1.448,1.462,2.175,2.189.127.127.229.286.428.058,1.694-1.938,3.616-3.657,5.345-5.562a.521.521,0,0,0,.025-.83c-.381-.451-.754-.907-1.166-1.33-.1-.1-.294-.191-.26-.344s.248-.15.388-.181c1.2-.264,2.394-.516,3.59-.775.724-.157,1.448-.31,2.168-.486.519-.126.529-.133.434.375q-.49,2.608-.985,5.215C-94.445,67.6-94.5,67.917-94.574,68.362Z" transform="translate(-139.407 -53.023)"/><path class="b" d="M80.214,173.523c0-2.374.015-4.749-.012-7.122-.006-.48.139-.586.587-.562.694.038,1.391.019,2.086,0,.3-.007.426.06.425.4q-.015,7.3,0,14.608c0,.308-.106.379-.394.372-.756-.017-1.513-.02-2.268,0-.346.011-.431-.109-.429-.441C80.22,178.362,80.214,175.942,80.214,173.523Z" transform="translate(-316.957 -147.76)"/><path class="b" d="M22.864,208.974c0-1.845.01-3.69-.008-5.535,0-.377.065-.537.489-.515.754.038,1.512.019,2.268.007.252,0,.341.074.341.335q-.01,5.671,0,11.342c0,.271-.107.329-.35.326-.771-.011-1.543-.02-2.313,0-.335.01-.438-.083-.435-.428.017-1.845.008-3.69.008-5.535Z" transform="translate(-264.821 -181.478)"/><path class="b" d="M-41.555,234.715c0-1.452.006-2.9-.005-4.357,0-.284.058-.4.374-.394.756.023,1.513.027,2.269,0,.381-.015.449.144.447.475-.011,2-.006,3.994-.007,5.99,0,.908-.01,1.815,0,2.723,0,.272-.081.374-.36.369-.8-.014-1.6-.019-2.405,0-.33.008-.32-.177-.319-.4q0-2.2,0-4.4Z" transform="translate(-206.257 -206.059)"/><path class="b" d="M-95.9,267.14c0-.937.011-1.874-.006-2.81-.005-.3.067-.431.4-.422.785.022,1.571.017,2.356,0,.256,0,.341.077.34.334q-.013,2.9,0,5.8c0,.221-.054.332-.3.329-.831-.01-1.662-.012-2.493,0-.3,0-.295-.174-.294-.382,0-.952,0-1.9,0-2.855Z" transform="translate(-156.846 -236.923)"/></g></g></svg>