<svg xmlns="http://www.w3.org/2000/svg" width="112.52" height="113.094" viewBox="0 0 112.52 113.094"><defs><style>.a{fill:#f3f3f3;}.b{fill:#403e3e;}</style></defs><g transform="translate(-69.401 0.298)"><path class="a" d="M56.26,0A56.548,56.548,0,1,1,0,56.547,56.4,56.4,0,0,1,56.26,0Z" transform="translate(69.401 -0.298)"/><g transform="translate(95.189 26.498)"><g transform="translate(19.676 17.891)"><path class="b" d="M181.816,162.988a7.109,7.109,0,1,0-10.312,0A10.672,10.672,0,0,0,166,172.32V174.1a1.777,1.777,0,0,0,1.777,1.777h17.773a1.777,1.777,0,0,0,1.777-1.777V172.32A10.672,10.672,0,0,0,181.816,162.988Zm-5.156-8.442a3.555,3.555,0,1,1-3.555,3.555A3.559,3.559,0,0,1,176.66,154.547Zm-7.109,17.773a7.109,7.109,0,1,1,14.219,0Z" transform="translate(-165.996 -150.992)"/></g><g transform="translate(25.008 0)"><g transform="translate(0 0)"><path class="b" d="M221.16,4.213,217.606.54a1.781,1.781,0,0,0-2.554,0L211.5,4.213a1.777,1.777,0,1,0,2.554,2.472l.5-.517v4.613a1.777,1.777,0,0,0,3.555,0V6.169l.5.517a1.777,1.777,0,0,0,2.555-2.472Z" transform="translate(-210.996 0)"/></g></g><g transform="translate(25.008 48.106)"><path class="b" d="M221.12,411.829a1.777,1.777,0,0,0-2.513.041l-.5.517v-4.613a1.777,1.777,0,1,0-3.555,0v4.613l-.5-.517a1.777,1.777,0,0,0-2.554,2.472l3.555,3.673a1.79,1.79,0,0,0,1.267.541h.01a1.794,1.794,0,0,0,1.277-.541l3.555-3.673A1.777,1.777,0,0,0,221.12,411.829Z" transform="translate(-210.997 -405.997)"/></g><g transform="translate(0.009 25)"><g transform="translate(0)"><path class="b" d="M10.789,214.547H6.177l.517-.5a1.777,1.777,0,1,0-2.472-2.554L.548,215.047a1.782,1.782,0,0,0,0,2.554l3.673,3.555A1.777,1.777,0,0,0,6.693,218.6l-.517-.5H10.79a1.777,1.777,0,1,0,0-3.555Z" transform="translate(-0.009 -210.992)"/></g></g><g transform="translate(48.114 25)"><path class="b" d="M418.022,215.046l-3.673-3.555a1.777,1.777,0,1,0-2.472,2.554l.517.5H407.78a1.777,1.777,0,1,0,0,3.555h4.613l-.517.5a1.777,1.777,0,1,0,2.472,2.554l3.673-3.555A1.781,1.781,0,0,0,418.022,215.046Z" transform="translate(-406.003 -210.991)"/></g><g transform="translate(8.42 42.38)"><path class="b" d="M80.346,358.189a1.777,1.777,0,0,0-2.514,0l-3.285,3.285v-.736a1.777,1.777,0,1,0-3.555,0v5.027a1.781,1.781,0,0,0,1.777,1.777H77.8a1.777,1.777,0,1,0,0-3.555h-.736l3.285-3.285A1.777,1.777,0,0,0,80.346,358.189Z" transform="translate(-70.993 -357.669)"/></g><g transform="translate(42.388 8.412)"><path class="b" d="M365.77,70.989h-5.027a1.777,1.777,0,0,0,0,3.555h.736l-3.285,3.285a1.777,1.777,0,0,0,2.514,2.513l3.285-3.285v.736a1.777,1.777,0,0,0,3.555,0V72.766A1.78,1.78,0,0,0,365.77,70.989Z" transform="translate(-357.673 -70.989)"/></g><g transform="translate(42.388 42.379)"><path class="b" d="M365.769,358.958a1.777,1.777,0,0,0-1.777,1.777v.736l-3.285-3.285a1.777,1.777,0,1,0-2.514,2.514l3.285,3.285h-.736a1.777,1.777,0,0,0,0,3.555h5.027a1.781,1.781,0,0,0,1.777-1.777v-5.027h0A1.777,1.777,0,0,0,365.769,358.958Z" transform="translate(-357.673 -357.666)"/></g><g transform="translate(8.42 8.412)"><path class="b" d="M80.347,77.829l-3.285-3.285H77.8a1.777,1.777,0,1,0,0-3.555H72.757a1.779,1.779,0,0,0-1.763,1.777v5.027a1.777,1.777,0,1,0,3.555,0v-.736l3.285,3.285a1.777,1.777,0,1,0,2.513-2.514Z" transform="translate(-70.994 -70.99)"/></g></g></g></svg>