<svg xmlns="http://www.w3.org/2000/svg" width="47.376" height="47.376" viewBox="0 0 47.376 47.376"><defs><style>.a{fill:#55acee;}.b{fill:#fff;}</style></defs><circle class="a" cx="23.688" cy="23.688" r="23.688"/><path class="b" d="M11.208-10.169a10.168,10.168,0,0,0,2.372-2.446,9.483,9.483,0,0,1-2.724.732,4.718,4.718,0,0,0,2.08-2.607,9.313,9.313,0,0,1-3,1.142,4.719,4.719,0,0,0-3.456-1.494,4.728,4.728,0,0,0-4.73,4.73,5.34,5.34,0,0,0,.117,1.084,13.446,13.446,0,0,1-9.754-4.95,4.7,4.7,0,0,0-.644,2.387A4.727,4.727,0,0,0-6.425-7.65a4.764,4.764,0,0,1-2.138-.6v.059A4.731,4.731,0,0,0-4.77-3.549a5,5,0,0,1-1.245.161,5.962,5.962,0,0,1-.893-.073A4.739,4.739,0,0,0-2.485-.181,9.474,9.474,0,0,1-8.358,1.84,9.79,9.79,0,0,1-9.5,1.782,13.368,13.368,0,0,0-2.236,3.905,13.367,13.367,0,0,0,11.223-9.554C11.223-9.759,11.223-9.964,11.208-10.169Z" transform="translate(21.648 29.418)"/></svg>